<?xml version="1.0" encoding="UTF-8" standalone="no"?>
<svg
   id="logo"
   viewBox="0 0 196 63.7"
   version="1.1"
   sodipodi:docname="DHL Group 01.07.2023.svg"
   inkscape:version="1.2.2 (732a01da63, 2022-12-09)"
   xmlns:inkscape="http://www.inkscape.org/namespaces/inkscape"
   xmlns:sodipodi="http://sodipodi.sourceforge.net/DTD/sodipodi-0.dtd"
   xmlns="http://www.w3.org/2000/svg"
   xmlns:svg="http://www.w3.org/2000/svg">
  <defs
     id="defs57" />
  <sodipodi:namedview
     id="namedview55"
     pagecolor="#ffffff"
     bordercolor="#111111"
     borderopacity="1"
     inkscape:showpageshadow="0"
     inkscape:pageopacity="0"
     inkscape:pagecheckerboard="1"
     inkscape:deskcolor="#d1d1d1"
     showgrid="false"
     inkscape:zoom="6.1734694"
     inkscape:cx="84.312397"
     inkscape:cy="31.910744"
     inkscape:window-width="1600"
     inkscape:window-height="829"
     inkscape:window-x="-8"
     inkscape:window-y="-8"
     inkscape:window-maximized="1"
     inkscape:current-layer="logo" />
  <rect
     x="0"
     width="196"
     height="63.7"
     fill="#fc0"
     id="rect2" />
  <polygon
     points="25.0581,31.8714 0,31.8714 0,29.9011 26.5058,29.9011 "
     fill="#d40511"
     id="polygon4" />
  <polygon
     points="27.7483,28.213 0,28.213 0,26.2454 29.1986,26.2454 "
     fill="#d40511"
     id="polygon6" />
  <polygon
     points="22.3733,35.5163 0,35.5163 0,33.5595 23.8146,33.5595 "
     fill="#d40511"
     id="polygon8" />
  <polygon
     points="171.0446,29.9024 196,29.9024 196,31.8714 169.5976,31.8714 "
     fill="#d40511"
     id="polygon12" />
  <polygon
     points="168.3537,33.5595 196,33.5595 196,35.5163 166.9128,35.519 "
     fill="#d40511"
     id="polygon14" />
  <polygon
     points="196,28.2143 172.287,28.2157 173.7354,26.2454 196,26.2454 "
     fill="#d40511"
     id="polygon16" />
  <path
     d="m 25.6726,35.5163 12.578,-17.0888 h 15.6082 c 1.7252,0 1.7026,0.655 0.8595,1.7975 -0.8562,1.16 -2.3134,3.1547 -3.1854,4.3323 -0.4426,0.5982 -1.2431,1.6881 1.4089,1.6881 h 20.9101 c -1.739,2.3822 -7.3796,9.2709 -17.5083,9.2709 z"
     fill="#d40511"
     id="path22" />
  <path
     d="m 97.7056,26.244 -6.8202,9.2723 H 72.893 c 0,0 6.8172,-9.2709 6.8233,-9.2709 z"
     fill="#d40511"
     id="path24" />
  <path
     d="M 123.7239,26.2454 116.9,35.5163 H 98.9144 c 0,0 6.8178,-9.2709 6.8239,-9.2709 z"
     fill="#d40511"
     id="path26" />
  <path
     d="m 129.5749,26.2454 c 6e-4,0 -1.314,1.7975 -1.9528,2.6604 -2.2593,3.0534 -0.2626,6.6105 7.1109,6.6105 h 28.8853 l 6.8226,-9.2709 h -40.8661 z"
     fill="#d40511"
     id="path28" />
  <path
     d="m 34.4685,7.8007 -6.2621,8.5079 h 34.1288 c 1.7249,0 1.7023,0.655 0.8593,1.7975 -0.8562,1.1587 -2.2894,3.1763 -3.1614,4.3539 -0.4427,0.5969 -1.2431,1.6867 1.4089,1.6867 h 13.9564 c 0,0 2.2495,-3.0615 4.1352,-5.6206 C 82.0991,15.0446 79.7561,7.8007 70.585,7.8007 Z"
     fill="#d40511"
     id="path32" />
  <polygon
     points="104.3858,17.173 112.4136,17.173 119.3153,7.8007 137.2989,7.8007 125.2688,24.1467 81.2619,24.1467 93.2956,7.8007 111.2819,7.8007 "
     fill="#d40511"
     id="polygon34" />
  <path
     d="m 162.2084,7.8007 -12.0314,16.346 h -19.0593 c 0,0 12.0355,-16.346 12.0415,-16.346 z"
     fill="#d40511"
     id="path36" />
  <path
     d="m 128.8409,56.1944 c -1.7968,0 -3.1939,-0.5507 -4.1905,-1.6523 -0.9966,-1.1016 -1.495,-2.6294 -1.495,-4.5835 v -1.1412 c 0,-1.2981 0.2431,-2.4096 0.7279,-3.3343 0.4855,-0.9244 1.1675,-1.6327 2.046,-2.1243 0.8785,-0.4919 1.9082,-0.7377 3.0885,-0.7377 0.944,0 1.7901,0.1607 2.5375,0.4818 0.7475,0.3218 1.3971,0.7904 1.9474,1.4065 l -1.7306,1.8296 c -0.4328,-0.4328 -0.8724,-0.7343 -1.3181,-0.9048 -0.4463,-0.1705 -0.9116,-0.2559 -1.3971,-0.2559 -0.944,0 -1.6692,0.3184 -2.1736,0.9541 -0.5051,0.6364 -0.7576,1.5706 -0.7576,2.8033 v 0.9048 c 0,1.233 0.233,2.1739 0.6989,2.8228 0.4652,0.6492 1.1439,0.9737 2.0358,0.9737 0.813,0 1.4389,-0.2684 1.8785,-0.8062 0.4396,-0.5378 0.659,-1.2326 0.659,-2.0855 h -2.597 v -2.3998 h 5.489 v 2.282 c 0,1.1675 -0.2235,2.1672 -0.6692,2.9997 -0.4457,0.8332 -1.0757,1.469 -1.8886,1.9082 -0.8129,0.4392 -1.7772,0.659 -2.8914,0.659 z"
     fill="#d40511"
     id="path42" />
  <path
     d="M 136.4732,55.8993 V 45.8669 h 2.6949 v 2.498 c 0.1438,-0.4457 0.3376,-0.8687 0.58,-1.2688 0.2431,-0.3997 0.5577,-0.7279 0.9447,-0.9835 0.3862,-0.2559 0.8684,-0.3835 1.4457,-0.3835 0.1182,0 0.2262,0.0034 0.3248,0.0098 0.0979,0.0068 0.2195,0.023 0.364,0.049 v 2.6361 c -0.1053,-0.0128 -0.2201,-0.0226 -0.3444,-0.0294 -0.1249,-0.0064 -0.2458,-0.0098 -0.364,-0.0098 -0.7212,0 -1.3113,0.1374 -1.7705,0.4129 -0.4592,0.2755 -0.8002,0.5706 -1.023,0.8852 v 6.2162 h -2.8522 z"
     fill="#d40511"
     id="path44" />
  <path
     d="m 148.6498,56.1353 c -1.495,0 -2.6726,-0.4328 -3.5308,-1.2981 -0.8596,-0.8657 -1.289,-2.0524 -1.289,-3.5605 v -0.787 c 0,-1.5078 0.4295,-2.6949 1.289,-3.5605 0.8582,-0.8657 2.0358,-1.2985 3.5308,-1.2985 1.495,0 2.6719,0.4328 3.5308,1.2985 0.8589,0.8657 1.289,2.0527 1.289,3.5605 v 0.787 c 0,1.5081 -0.4301,2.6949 -1.289,3.5605 -0.8589,0.8653 -2.0358,1.2981 -3.5308,1.2981 z m 0,-2.3802 c 0.6165,0 1.0979,-0.2097 1.4457,-0.6293 0.3478,-0.4196 0.5213,-1.0557 0.5213,-1.9082 v -0.6688 c 0,-0.8525 -0.1735,-1.4882 -0.5213,-1.9082 -0.3477,-0.4197 -0.8292,-0.6297 -1.4457,-0.6297 -0.6165,0 -1.0986,0.21 -1.4457,0.6297 -0.3477,0.42 -0.5213,1.0557 -0.5213,1.9082 v 0.6688 c 0,0.8525 0.1735,1.4886 0.5213,1.9082 0.3471,0.4197 0.8292,0.6293 1.4457,0.6293 z"
     fill="#d40511"
     id="path46" />
  <path
     d="m 158.5055,56.0961 c -0.9838,0 -1.7381,-0.3474 -2.2627,-1.0426 -0.5246,-0.6952 -0.7867,-1.6786 -0.7867,-2.9508 v -6.2358 h 2.8522 v 6.0586 c 0,0.5382 0.1148,0.9639 0.3444,1.2789 0.2296,0.3147 0.5935,0.472 1.0919,0.472 0.3667,0 0.6887,-0.0885 0.9636,-0.2657 0.2755,-0.1769 0.4983,-0.4031 0.6692,-0.6786 v -6.8652 h 2.8522 v 10.0324 h -2.6949 v -1.7509 c -0.3018,0.5773 -0.7049,1.0459 -1.21,1.4065 -0.5051,0.3606 -1.1114,0.5412 -1.8191,0.5412 z"
     fill="#d40511"
     id="path48" />
  <path
     d="M 166.8258,59.6367 V 45.8669 h 2.6949 v 1.731 c 0.2755,-0.603 0.6719,-1.0753 1.1898,-1.4163 0.5186,-0.341 1.1114,-0.5115 1.7806,-0.5115 1.1276,0 2.0095,0.4298 2.6456,1.2884 0.6361,0.8592 0.9541,2.0362 0.9541,3.5312 v 0.787 c 0,1.495 -0.318,2.6723 -0.9541,3.5308 -0.6361,0.8592 -1.5179,1.2887 -2.6456,1.2887 -1.2985,0 -2.2364,-0.6033 -2.813,-1.81 v 5.3506 h -2.8522 z m 4.5835,-11.5668 c -0.7218,0 -1.2985,0.3082 -1.7313,0.9247 v 3.7965 c 0.4328,0.6033 1.0095,0.9048 1.7313,0.9048 0.5902,0 1.0426,-0.213 1.3572,-0.6391 0.3146,-0.4261 0.472,-1.0392 0.472,-1.8394 v -0.6688 c 0,-0.7998 -0.1573,-1.4129 -0.472,-1.8394 -0.3147,-0.4261 -0.7671,-0.6395 -1.3572,-0.6395 z"
     fill="#d40511"
     id="path50" />
</svg>
